<svg xmlns="http://www.w3.org/2000/svg" viewBox="0 0 32 32">
  <path fill="#25D366" d="M16 2C8.268 2 2 8.268 2 16c0 2.824.828 5.448 2.25 7.656L2 30l6.5-2.156A13.94 13.94 0 0016 30c7.732 0 14-6.268 14-14S23.732 2 16 2zm0 25.5a11.46 11.46 0 01-5.844-1.594l-.406-.234-3.844 1.281 1.281-3.75-.25-.422A11.44 11.44 0 0116 4.5c6.352 0 11.5 5.148 11.5 11.5S22.352 27.5 16 27.5zm6.375-8.469c-.344-.172-2.047-1.016-2.367-1.125-.32-.117-.555-.172-.789.172-.234.344-.906 1.125-1.109 1.359-.203.234-.406.266-.75.094-.344-.172-1.453-.535-2.766-1.703-1.023-.914-1.711-2.039-1.914-2.383-.203-.344-.023-.531.148-.703.156-.156.344-.406.516-.609.172-.203.234-.344.344-.578.117-.234.055-.438-.031-.609-.086-.172-.789-1.906-1.078-2.609-.289-.695-.586-.602-.789-.609-.203-.008-.438-.008-.672-.008s-.609.086-.93.438c-.32.352-1.219 1.188-1.219 2.898s1.25 3.367 1.422 3.602c.172.234 2.461 3.758 5.961 5.266.832.359 1.484.574 1.992.734.836.266 1.594.227 2.195.137.672-.102 2.047-.836 2.336-1.641.289-.805.289-1.492.203-1.641-.086-.148-.32-.234-.664-.406z"></path>
</svg>
